<svg width="80" height="80" viewBox="0 0 80 80" fill="none" xmlns="http://www.w3.org/2000/svg">
<rect width="80" height="80" rx="40" transform="matrix(1 0 0 -1 0 80)" fill="white"/>
<path fill-rule="evenodd" clip-rule="evenodd" d="M26.6667 34.8409C26.6667 28.4928 32.1849 22.7273 39.5 22.7273C46.8152 22.7273 52.3333 28.4928 52.3333 34.8409C52.3333 38.8382 49.9275 43.3029 46.7611 47.4411C44.2588 50.7116 41.475 53.5386 39.5 55.5168C37.525 53.5386 34.7412 50.7116 32.2388 47.4411C29.0725 43.3029 26.6667 38.8382 26.6667 34.8409ZM39.5 19C30.3151 19 23 26.2799 23 34.8409C23 40.1618 26.0941 45.4812 29.3445 49.7293C32.1573 53.4055 35.3189 56.5661 37.2951 58.5413C37.6357 58.882 37.9413 59.1875 38.2037 59.4541C38.5474 59.8036 39.0138 60 39.5 60C39.9862 60 40.4526 59.8036 40.7964 59.4541C41.0587 59.1875 41.3643 58.882 41.7049 58.5415C43.6809 56.5661 46.8427 53.4055 49.6556 49.7293C52.9059 45.4812 56 40.1618 56 34.8409C56 26.2799 48.6848 19 39.5 19ZM39.5 40.4318C42.0313 40.4318 44.0833 38.3459 44.0833 35.7727C44.0833 33.1996 42.0313 31.1136 39.5 31.1136C36.9687 31.1136 34.9167 33.1996 34.9167 35.7727C34.9167 38.3459 36.9687 40.4318 39.5 40.4318Z" fill="black"/>
</svg>
