<svg width="91" height="47" viewBox="0 0 91 47" fill="none" xmlns="http://www.w3.org/2000/svg">
<path id="Vector" fill-rule="evenodd" clip-rule="evenodd" d="M25.0498 0.102578L26.3822 2.66702C27.0997 4.08259 28.5141 6.81115 29.498 8.7191C30.5025 10.627 32.5319 14.607 34.0283 17.5408C35.5248 20.4745 37.4517 24.2288 39.8705 28.8858L39.973 17.233L72.6689 17.1305L73.6939 16.6791C74.2678 16.4124 75.0673 15.8585 75.4773 15.4482C75.8873 15.0174 76.3792 14.2583 76.5637 13.7454C76.7277 13.2325 76.8712 12.3914 76.8712 11.8375C76.8712 11.304 76.7687 10.4424 76.6252 9.90899C76.4612 9.19095 76.1128 8.65755 75.4568 8.00105C74.9443 7.48816 74.0629 6.89321 73.4889 6.66754C72.4844 6.27775 71.931 6.25723 52.1699 6.2162C35.9757 6.17517 31.8349 6.11362 31.6504 5.90847C31.5069 5.76486 30.81 4.47238 30.0515 3.0363C29.3136 1.57969 28.7396 0.307733 28.8011 0.205155C28.8626 0.0615466 35.9962 0 49.5666 0C62.3579 0 71.029 0.0820621 72.3614 0.205155C73.5504 0.328248 75.0263 0.574434 75.6413 0.738559C76.2562 0.923198 77.2402 1.29248 77.7937 1.55918C78.3676 1.82588 79.3516 2.46186 80.0076 2.97475C80.643 3.48764 81.545 4.47238 81.996 5.19043C82.4674 5.88795 83.0209 7.05734 83.2464 7.7959C83.5539 8.80116 83.6564 9.72435 83.6564 11.5913C83.6564 13.4787 83.5744 14.3609 83.2464 15.3866C83.0209 16.1252 82.4674 17.2741 82.037 17.9511C81.6065 18.6281 80.7865 19.6128 80.2331 20.1257C79.6796 20.6386 78.8596 21.2951 78.4086 21.5823C77.9577 21.8695 77.0352 22.3004 76.3587 22.5466C75.6823 22.8133 74.2883 23.1415 73.2839 23.3056C71.8695 23.5108 68.5691 23.5928 46.7377 23.5928V38.0563L47.8036 38.3025C48.3981 38.4461 49.997 38.6718 51.35 38.7948C53.1334 38.9385 54.5478 38.9384 56.4747 38.7743C57.9302 38.6512 59.6931 38.4666 60.3695 38.3435C61.046 38.2409 62.3784 37.9332 63.3419 37.687C64.3053 37.4408 64.8793 37.2151 64.6333 37.1946C64.3668 37.1536 64.1618 37.051 64.1618 36.9279C64.1618 36.8048 64.4283 36.333 64.7563 35.8611C65.0843 35.3688 65.7403 34.2404 66.2527 33.3377C66.7447 32.435 67.3597 31.2451 67.6467 30.7117C67.9337 30.1783 68.6306 29.1115 69.1841 28.3524C69.8606 27.4498 70.701 26.6702 71.644 26.0342C72.4434 25.5008 73.8169 24.7007 74.7188 24.2493C75.7438 23.7159 76.4407 23.4903 76.5637 23.5928C76.7072 23.7159 76.5842 24.1262 76.2152 24.7622C75.9283 25.3161 75.5183 26.5266 75.3133 27.4908C75.1288 28.455 74.7393 29.7065 74.4933 30.2604C74.2268 30.8348 73.6119 31.7375 73.1404 32.2914C72.6484 32.8453 71.6235 33.7275 70.824 34.2404C70.0246 34.7738 68.6101 35.5329 67.6467 35.9432C66.6832 36.3535 65.7198 36.7433 65.4943 36.8048C65.2688 36.8869 65.1253 36.969 65.1868 37.0305C65.2483 37.0921 65.9863 36.9074 66.8267 36.5997C67.6672 36.3125 69.4711 35.5329 70.824 34.8764C72.1769 34.2199 73.7964 33.3377 74.4318 32.9069C75.0673 32.4555 75.9898 31.7375 76.4817 31.2862C76.9737 30.8348 77.6707 30.0963 78.0192 29.6449C78.3676 29.1936 78.7776 28.3319 78.9211 27.6959C79.0646 27.0805 79.4541 25.9726 79.8026 25.2341C80.1511 24.4955 80.725 23.4082 81.1145 22.8338C81.4835 22.2388 82.3239 21.213 82.9799 20.536C83.6154 19.8795 84.5788 18.9974 85.1323 18.5871C85.6653 18.1767 86.4442 17.7664 86.8747 17.6639C87.2847 17.5408 88.0637 17.0894 88.6171 16.6381C89.1501 16.1662 89.7651 15.7969 89.9906 15.7969C90.2161 15.7969 90.4211 15.92 90.4621 16.0637C90.503 16.1867 90.4211 16.9048 90.2981 17.6433C90.1546 18.3819 89.8471 19.5308 89.5806 20.2078C89.3346 20.8848 88.6786 22.1773 88.1457 23.08C87.5102 24.1673 86.6492 25.1931 85.6653 26.1163C84.8248 26.8753 84.0664 27.5113 83.9434 27.5113C83.8204 27.5113 83.5949 27.6344 83.4309 27.778C83.2669 27.9421 82.4264 28.3114 81.586 28.6191C80.397 29.0295 79.8231 29.3782 79.1056 30.1168C78.5931 30.6502 77.6297 31.4913 76.9532 32.0042C76.2767 32.5171 75.4978 33.0915 74.7188 33.666L75.2313 33.4198C75.5183 33.2762 76.4202 32.6812 77.2402 32.0658C78.0397 31.4708 79.1056 30.7528 79.5976 30.4861C80.0691 30.2194 80.93 29.8706 81.4835 29.686C82.0575 29.5013 83.4719 29.2141 84.6608 29.05C85.8498 28.8858 87.3667 28.5576 88.0432 28.3114C88.7196 28.0652 89.3346 27.9421 89.4371 28.0447C89.5191 28.1268 89.2936 28.6807 88.9246 29.2346C88.5556 29.809 87.2847 31.2246 86.0958 32.4145C84.3943 34.1378 83.6564 34.7328 82.5084 35.2662C81.709 35.6355 80.52 36.0458 79.8436 36.1483C79.1671 36.2509 78.2037 36.292 77.6912 36.2099C77.1787 36.1483 76.1743 35.8816 75.4363 35.656C74.6983 35.4098 73.9399 35.0405 73.7554 34.8354C73.4069 34.4866 73.3249 34.4866 71.9105 35.2046C71.0905 35.6149 69.4506 36.3535 68.2616 36.8254C67.0727 37.2972 65.2278 37.9127 64.1618 38.2204C63.0959 38.5076 62.03 38.7948 61.8045 38.8359C61.4765 38.8974 61.5585 39 62.2144 39.2872C62.7064 39.4924 63.3214 39.5949 63.7519 39.5539C64.1413 39.4924 65.1663 39.1231 66.0068 38.7333C66.8472 38.323 67.9132 37.8922 68.3641 37.7691C68.8151 37.646 70.168 37.5434 71.398 37.5434C73.0379 37.5434 74.1449 37.6665 75.7438 38.0563C76.9327 38.3435 78.4496 38.5692 79.1261 38.5692C79.9666 38.5692 80.356 38.6512 80.356 38.8359C80.356 38.959 79.1876 39.7796 77.7527 40.6618C76.2972 41.5234 74.8418 42.3645 74.5138 42.5287C74.1858 42.6928 73.2634 43.021 72.4639 43.2672C71.4595 43.575 70.496 43.6981 69.2456 43.6981C67.6672 43.6981 67.2162 43.616 65.6583 42.98C64.6538 42.5697 63.4444 41.9542 62.9319 41.6055C62.4194 41.2567 61.5585 40.5387 60.9845 40.0463C60.103 39.2667 59.8776 39.1436 59.3446 39.2462C59.0166 39.3282 57.3972 39.4513 52.7849 39.677L54.0148 40.0463C54.6913 40.272 55.7983 40.7028 56.4747 41.031C57.1512 41.3388 58.1966 42.0568 58.8116 42.6107C59.4061 43.1441 60.226 44.0673 60.595 44.6213C60.964 45.1957 61.292 45.7906 61.292 45.9548C61.292 46.2009 61.128 46.242 60.431 46.0984C59.939 46.0163 58.3401 45.7701 56.8847 45.565C54.9783 45.2983 53.8304 45.011 52.8874 44.6007C52.1494 44.252 51.145 43.575 50.6325 43.0826C50.12 42.5697 49.3821 41.5234 48.9926 40.7438C48.5416 39.8617 48.0906 39.2667 47.8242 39.1641C47.5577 39.0615 47.2092 38.9795 47.0452 38.9795C46.7992 38.9795 46.7377 39.2462 46.7377 41.4413L39.0916 41.3388L36.6522 36.6202C35.2993 34.0352 34.1718 31.7375 34.1308 31.5529C34.0283 31.2041 33.3519 31.1836 12.0124 31.2862L6.86716 41.4413H3.44383C1.27094 41.4413 0 41.3593 0 41.2362C0 41.1131 0.901956 39.2462 2.0294 37.0921C3.13635 34.9174 5.78072 29.7065 7.89211 25.5418C10.0035 21.3772 13.1399 15.1815 14.8618 11.7964C16.5837 8.41136 18.5926 4.47238 19.3305 3.05681C20.0685 1.64124 20.7245 0.369279 20.8065 0.246186C20.909 0.0615466 21.5444 0 25.0498 0.102578ZM19.2896 17.1305C17.7726 20.0642 16.1942 23.1415 15.7637 23.9621L14.9643 25.4392H30.9535C29.2521 22.1773 27.4686 18.7102 25.9107 15.6328C24.3323 12.5555 23.0204 10.0526 22.9589 10.0526C22.8974 10.0526 22.6719 10.4424 22.4464 10.9348C22.2004 11.4066 20.786 14.1967 19.2896 17.1305ZM67.6057 26.6702C67.7287 26.6702 67.8927 26.7522 67.9542 26.8753C68.0157 26.9984 67.8107 27.3882 67.4827 27.737C67.1752 28.1063 66.1707 29.6654 65.2483 31.1836C64.2643 32.8453 63.2189 34.3019 62.6449 34.8354C62.1324 35.3072 61.3535 35.9022 60.9435 36.1689C60.513 36.4356 59.6521 36.8459 59.0371 37.0921C58.4221 37.3382 57.3152 37.687 56.5772 37.8716C55.6958 38.0973 54.7118 38.1794 53.6049 38.1178C52.5389 38.0563 51.678 37.8922 51.145 37.6255C50.694 37.4203 50.3045 37.0921 50.2635 36.9279C50.2225 36.7433 50.571 36.4561 51.186 36.1483C51.8419 35.8338 52.7849 35.02 54.0148 33.707C55.1423 32.4966 56.4542 31.3272 57.3972 30.7322C58.2376 30.1783 59.4471 29.5834 60.062 29.4193C60.677 29.2551 62.1119 28.8243 63.2394 28.4755C64.3668 28.1268 65.7608 27.5729 66.3142 27.2651C66.8882 26.9369 67.4622 26.6907 67.6057 26.6702Z" fill="white"/>
</svg>
